<svg width="459" height="144" viewBox="0 0 459 144" fill="none" xmlns="http://www.w3.org/2000/svg">
<circle cx="72" cy="72" r="72" fill="#494848"/>
<path d="M29.5385 36.9231H71.563V65.7399C71.563 88.9495 52.748 107.764 29.5385 107.764V107.764V36.9231Z" fill="#FDD448"/>
<path d="M73.9645 36.9231H116.589V42.8438C116.589 59.1362 103.382 72.3438 87.0894 72.3438H73.9645V36.9231Z" fill="#FDD448"/>
<path d="M73.9645 74.7453H79.3676C93.2933 74.7453 104.582 86.0343 104.582 99.96V99.96H73.9645V74.7453Z" fill="#FDD448"/>
<path d="M322 48H459V66C459 82.5685 445.569 96 429 96H322V48Z" fill="#494848"/>
<path d="M165.28 86V56.8H174.32L181 73.2H181.76L188.36 56.8H197.56V86H191.08V61.08L192 61.16L184.28 80.08H178.04L170.28 61.16L171.28 61.08V86H165.28ZM218.108 86.76C215.468 86.76 213.161 86.3067 211.188 85.4C209.241 84.4667 207.628 83.2533 206.348 81.76C205.068 80.24 204.108 78.6 203.468 76.84C202.855 75.08 202.548 73.3867 202.548 71.76V70.88C202.548 69.0667 202.868 67.28 203.508 65.52C204.175 63.7333 205.161 62.12 206.468 60.68C207.775 59.24 209.401 58.0933 211.348 57.24C213.295 56.36 215.548 55.92 218.108 55.92C220.668 55.92 222.921 56.36 224.868 57.24C226.815 58.0933 228.441 59.24 229.748 60.68C231.055 62.12 232.041 63.7333 232.708 65.52C233.375 67.28 233.708 69.0667 233.708 70.88V71.76C233.708 73.3867 233.388 75.08 232.748 76.84C232.108 78.6 231.148 80.24 229.868 81.76C228.588 83.2533 226.961 84.4667 224.988 85.4C223.041 86.3067 220.748 86.76 218.108 86.76ZM218.108 80.64C219.495 80.64 220.735 80.4 221.828 79.92C222.948 79.44 223.895 78.7733 224.668 77.92C225.468 77.0667 226.068 76.08 226.468 74.96C226.868 73.84 227.068 72.64 227.068 71.36C227.068 70 226.855 68.76 226.428 67.64C226.028 66.4933 225.428 65.5067 224.628 64.68C223.855 63.8267 222.921 63.1733 221.828 62.72C220.735 62.2667 219.495 62.04 218.108 62.04C216.721 62.04 215.481 62.2667 214.388 62.72C213.295 63.1733 212.348 63.8267 211.548 64.68C210.775 65.5067 210.188 66.4933 209.788 67.64C209.388 68.76 209.188 70 209.188 71.36C209.188 72.64 209.388 73.84 209.788 74.96C210.188 76.08 210.775 77.0667 211.548 77.92C212.348 78.7733 213.295 79.44 214.388 79.92C215.481 80.4 216.721 80.64 218.108 80.64ZM244.438 86.16V80.04H249.878C251.238 80.04 252.465 79.84 253.558 79.44C254.652 79.0133 255.585 78.4267 256.358 77.68C257.132 76.9067 257.718 75.9867 258.118 74.92C258.518 73.8267 258.718 72.6267 258.718 71.32C258.718 69.96 258.518 68.7467 258.118 67.68C257.718 66.6133 257.132 65.7067 256.358 64.96C255.585 64.2133 254.652 63.6533 253.558 63.28C252.465 62.88 251.238 62.68 249.878 62.68H244.438V56.56H249.518C252.158 56.56 254.465 56.9467 256.438 57.72C258.412 58.4933 260.065 59.5467 261.398 60.88C262.732 62.2133 263.718 63.7467 264.358 65.48C265.025 67.1867 265.358 68.9867 265.358 70.88V71.76C265.358 73.52 265.025 75.2667 264.358 77C263.718 78.7067 262.732 80.2533 261.398 81.64C260.065 83 258.412 84.0933 256.438 84.92C254.465 85.7467 252.158 86.16 249.518 86.16H244.438ZM238.678 86.16V56.56H245.238V86.16H238.678ZM265.918 86L275.558 56.8H286.158L296.158 86H289.358L281.278 61.32L283.358 62.16H278.198L280.358 61.32L272.478 86H265.918ZM273.238 78.76L275.238 73.32H286.678L288.718 78.76H273.238ZM299.968 86V56.8H306.528V86H299.968ZM305.728 86V80.24H317.968V86H305.728Z" fill="#494848"/>
<path d="M349.871 86L339.791 72.36H335.751L347.991 56.8H355.511L344.511 70.76L344.431 67.92L357.791 86H349.871ZM330.671 86V56.8H337.231V86H330.671ZM357.637 86L367.277 56.8H377.877L387.877 86H381.077L372.997 61.32L375.077 62.16H369.917L372.077 61.32L364.197 86H357.637ZM364.957 78.76L366.957 73.32H378.397L380.437 78.76H364.957ZM391.686 86V56.8H400.726L407.406 73.2H408.166L414.766 56.8H423.966V86H417.486V61.08L418.406 61.16L410.686 80.08H404.446L396.686 61.16L397.686 61.08V86H391.686ZM430.594 86V56.8H437.154V86H430.594Z" fill="#FDD448"/>
</svg>
